<svg xmlns="http://www.w3.org/2000/svg" xmlns:xlink="http://www.w3.org/1999/xlink" viewBox="0 0 512 512" width="512" height="512" preserveAspectRatio="xMidYMid meet" style="width: 100%; height: 100%; transform: translate3d(0px, 0px, 0px); content-visibility: visible;"><defs><clipPath id="__lottie_element_259"><rect width="512" height="512" x="0" y="0"/></clipPath><radialGradient id="__lottie_element_265" spreadMethod="pad" gradientUnits="userSpaceOnUse" cx="-76.46900177001953" cy="-105.41999816894531" r="358.16271430369983" fx="-76.46900177001953" fy="-105.41999816894531"><stop offset="0%" stop-color="rgb(120,160,192)"/><stop offset="55%" stop-color="rgb(99,137,171)"/><stop offset="88%" stop-color="rgb(78,114,149)"/></radialGradient><linearGradient id="__lottie_element_268" spreadMethod="pad" gradientUnits="userSpaceOnUse" x1="-5.796999931335449" y1="-7.989999771118164" x2="-15.17300033569336" y2="-67.20500183105469"><stop offset="0%" stop-color="rgb(78,114,149)"/><stop offset="37%" stop-color="rgb(99,137,171)"/><stop offset="100%" stop-color="rgb(120,160,192)"/></linearGradient><linearGradient id="__lottie_element_272" spreadMethod="pad" gradientUnits="userSpaceOnUse" x1="-0.6259999871253967" y1="137.42100524902344" x2="-6.822999954223633" y2="-139.9080047607422"><stop offset="43%" stop-color="rgb(54,84,118)"/><stop offset="65%" stop-color="rgb(83,118,150)"/><stop offset="95%" stop-color="rgb(112,151,183)"/></linearGradient><linearGradient id="__lottie_element_276" spreadMethod="pad" gradientUnits="userSpaceOnUse" x1="1.2009999752044678" y1="49.37900161743164" x2="-5.770999908447266" y2="-83.86299896240234"><stop offset="34%" stop-color="rgb(92,129,163)"/><stop offset="57%" stop-color="rgb(102,140,173)"/><stop offset="95%" stop-color="rgb(112,151,183)"/></linearGradient><linearGradient id="__lottie_element_280" spreadMethod="pad" gradientUnits="userSpaceOnUse" x1="2.8519999980926514" y1="109.802001953125" x2="-4.119999885559082" y2="-97.03299713134766"><stop offset="0%" stop-color="rgb(99,137,170)"/><stop offset="37%" stop-color="rgb(109,148,181)"/><stop offset="100%" stop-color="rgb(120,160,192)"/></linearGradient><linearGradient id="__lottie_element_284" spreadMethod="pad" gradientUnits="userSpaceOnUse" x1="-8.10099983215332" y1="-47.16299819946289" x2="4.294000148773193" y2="40.374000549316406"><stop offset="37%" stop-color="rgb(92,129,163)"/><stop offset="58%" stop-color="rgb(87,124,158)"/><stop offset="95%" stop-color="rgb(83,119,153)"/></linearGradient><radialGradient id="__lottie_element_289" spreadMethod="pad" gradientUnits="userSpaceOnUse" cx="-24.44300079345703" cy="-29.71299934387207" r="75.45038612594423" fx="-24.44300079345703" fy="-29.71299934387207"><stop offset="0%" stop-color="rgb(71,106,141)"/><stop offset="55%" stop-color="rgb(71,106,141)"/><stop offset="87%" stop-color="rgb(71,106,141)"/></radialGradient><linearGradient id="__lottie_element_298" spreadMethod="pad" gradientUnits="userSpaceOnUse" x1="13.444999694824219" y1="49.0880012512207" x2="-8.246000289916992" y2="-40.77199935913086"><stop offset="28%" stop-color="rgb(88,124,158)"/><stop offset="57%" stop-color="rgb(92,128,162)"/><stop offset="95%" stop-color="rgb(95,132,166)"/></linearGradient></defs><g clip-path="url(#__lottie_element_259)"><g transform="matrix(0.9852753281593323,0,0,1.014724612236023,2.753662109375,-6.574371337890625)" opacity="1" style="display: block;"><g opacity="1" transform="matrix(1,0,0,1,0,0)"><g opacity="1" transform="matrix(1,0,0,1,443.7969970703125,357.989990234375)"><path fill="url(#__lottie_element_268)" fill-opacity="1" d=" M-17.11400032043457,-53.88100051879883 C24.660999298095703,-15.847000122070312 52.04199981689453,13 35.0359992980957,41.82400131225586 C21.514999389648438,64.74099731445312 -15.107999801635742,50.74800109863281 -40.15700149536133,34.85499954223633 C-40.15700149536133,34.85499954223633 -17.11400032043457,-53.88100051879883 -17.11400032043457,-53.88100051879883z"/></g><g opacity="1" transform="matrix(1,0,0,1,481.3940124511719,381.2239990234375)"><path stroke-linecap="round" stroke-linejoin="round" fill-opacity="0" stroke="rgb(58,92,132)" stroke-opacity="1" stroke-width="8" d=" M-2.484999895095825,-18.59000015258789 C3.888000011444092,-5.734000205993652 4.61299991607666,6.429999828338623 -2.561000108718872,18.59000015258789"/></g><g opacity="1" transform="matrix(1,0,0,1,452.7959899902344,333.3710021972656)"><path stroke-linecap="round" stroke-linejoin="round" fill-opacity="0" stroke="rgb(144,201,221)" stroke-opacity="1" stroke-width="8" d=" M-26.113000869750977,-29.261999130249023 C-7.835999965667725,-12.621999740600586 7.684999942779541,2.259999990463257 17.940000534057617,16.149999618530273 C21.236000061035156,20.614999771118164 23.98900032043457,24.976999282836914 26.113000869750977,29.261999130249023"/></g></g></g><g transform="matrix(1,0,0,1,0,0)" opacity="1" style="display: block;"><g opacity="1" transform="matrix(1,0,0,1,0,0)"><g opacity="1" transform="matrix(1,0,0,1,0,0)"><g opacity="1" transform="matrix(1,0,0,1,296.6260070800781,327.5790100097656)"><path fill="url(#__lottie_element_272)" fill-opacity="1" d=" M55.209999084472656,-120.49299621582031 C54.51900100708008,-108.74099731445312 53.82699966430664,-98.37000274658203 56.59199905395508,-96.06600189208984 C59.356998443603516,-93.76200103759766 112.78900146484375,-77.03800201416016 126.38500213623047,-55.88800048828125 C139.9810028076172,-34.737998962402344 148.7429962158203,11.48900032043457 153.08799743652344,125.65399932861328 C153.08799743652344,125.65399932861328 -152.89500427246094,125.65399932861328 -152.89500427246094,125.65399932861328 C-156.12399291992188,20.051000595092773 -118.08699798583984,-109.1780014038086 -92.37899780273438,-113.91600036621094 C-78.072998046875,-116.552001953125 -59.444000244140625,-104.28900146484375 -59.444000244140625,-104.28900146484375 C-52.930999755859375,-109.75199890136719 -46.83700180053711,-125.65399932861328 -46.83700180053711,-125.65399932861328 C-46.83700180053711,-125.65399932861328 55.209999084472656,-120.49299621582031 55.209999084472656,-120.49299621582031z"/></g><g opacity="1" transform="matrix(1,0,0,1,295.20001220703125,216.718994140625)"><path stroke-linecap="round" stroke-linejoin="round" fill-opacity="0" stroke="rgb(58,92,132)" stroke-opacity="1" stroke-width="8" d=" M-58.018001556396484,6.571000099182129 C-51.505001068115234,1.1080000400543213 -45.4109992980957,-14.793999671936035 -45.4109992980957,-14.793999671936035 C-45.4109992980957,-14.793999671936035 56.6349983215332,-9.633000373840332 56.6349983215332,-9.633000373840332 C55.944000244140625,2.11899995803833 55.25299835205078,12.489999771118164 58.018001556396484,14.793999671936035"/></g><g opacity="1" transform="matrix(1,0,0,1,296.7229919433594,362.4620056152344)"><path stroke-linecap="round" stroke-linejoin="round" fill-opacity="0" stroke="rgb(47,73,104)" stroke-opacity="1" stroke-width="8" d=" M126.28800201416016,-90.77100372314453 C139.88400268554688,-69.62100219726562 148.64599609375,-23.393999099731445 152.99099731445312,90.77100372314453 C152.99099731445312,90.77100372314453 -152.99099731445312,90.77100372314453 -152.99099731445312,90.77100372314453"/></g><g opacity="1" transform="matrix(1,0,0,1,220.71499633789062,218.2209930419922)"><path stroke-linecap="round" stroke-linejoin="round" fill-opacity="0" stroke="rgb(144,201,221)" stroke-opacity="1" stroke-width="8" d=" M-16.468000411987305,-4.557000160217285 C-0.8309999704360962,-7.757999897003174 16.468000411987305,5.070000171661377 16.468000411987305,5.070000171661377"/></g></g><g opacity="1" transform="matrix(1,0,0,1,388.114990234375,251.6020050048828)"><path stroke-linecap="round" stroke-linejoin="round" fill-opacity="0" stroke="rgb(144,201,221)" stroke-opacity="1" stroke-width="8" d=" M-34.895999908447266,-20.089000701904297 C-32.13100051879883,-17.78499984741211 21.299999237060547,-1.0609999895095825 34.895999908447266,20.089000701904297"/></g></g></g><g transform="matrix(1,0,0,1,0,0)" opacity="1" style="display: block;"><g opacity="1" transform="matrix(1,0,0,1,0,0)"><g opacity="1" transform="matrix(1,0,0,1,120.79900360107422,270.6210021972656)"><path fill="url(#__lottie_element_276)" fill-opacity="1" d=" M83.447998046875,-56.95800018310547 C-32.12799835205078,-34.85200119018555 -101.02200317382812,19.48900032043457 -97.63400268554688,45.0890007019043 C-97.63400268554688,45.0890007019043 -36.645999908447266,56.95800018310547 -36.645999908447266,56.95800018310547 C45.80099868774414,21.618999481201172 97.75399780273438,-9.251999855041504 97.75399780273438,-9.251999855041504 C97.75399780273438,-9.251999855041504 83.447998046875,-56.95800018310547 83.447998046875,-56.95800018310547z"/></g><g opacity="1" transform="matrix(1,0,0,1,113.64600372314453,264.68701171875)"><path stroke-linecap="round" stroke-linejoin="round" fill-opacity="0" stroke="rgb(144,201,221)" stroke-opacity="1" stroke-width="8" d=" M90.60099792480469,-51.02299880981445 C-24.975000381469727,-28.91699981689453 -93.86900329589844,25.42300033569336 -90.48100280761719,51.02299880981445"/></g></g></g><g transform="matrix(0.9852753281593323,0,0,1.014724612236023,2.753662109375,-6.574371337890625)" opacity="1" style="display: block;"><g opacity="1" transform="matrix(1,0,0,1,0,0)"><g opacity="1" transform="matrix(1,0,0,1,251.468994140625,252.4199981689453)"><path fill="url(#__lottie_element_265)" fill-opacity="1" d=" M224.2830047607422,152.5240020751953 C205.88099670410156,178.38499450683594 164.3209991455078,163.78500366210938 83.9280014038086,145.3780059814453 C83.9280014038086,145.3780059814453 86.96099853515625,165.5399932861328 90.26000213623047,200.18299865722656 C90.26000213623047,200.18299865722656 -189.99200439453125,200.81300354003906 -189.99200439453125,200.81300354003906 C-202.92100524902344,179.49600219726562 -228.42300415039062,133.3990020751953 -223.7100067138672,98.66300201416016 C-218.06300354003906,57.04499816894531 -133.45899963378906,34.020999908447266 -104.17500305175781,12.32800006866455 C-104.17500305175781,12.32800006866455 -103.677001953125,-5.558000087738037 -105.08999633789062,-14.093000411987305 C-108.39099884033203,-34.0359992980957 -144.39500427246094,-62.74300003051758 -150.7169952392578,-111.66799926757812 C-156.02699279785156,-152.76100158691406 -128.00399780273438,-197.4250030517578 -80.76699829101562,-200.625 C-41.12300109863281,-203.31100463867188 -0.16300000250339508,-177.3090057373047 5.484000205993652,-118.58000183105469 C11.130999565124512,-59.85100173950195 -1.5989999771118164,-22.617000579833984 -24.183000564575195,-18.85300064086914 C-24.183000564575195,-18.85300064086914 -25.361000061035156,-3.3889999389648438 -24.038000106811523,8.821999549865723 C-24.038000106811523,8.821999549865723 -11.864999771118164,19.334999084472656 53.983001708984375,42.37200164794922 C104.46099853515625,60.03200149536133 176.64500427246094,86.9520034790039 200.5709991455078,97.20600128173828"/></g><g opacity="1" transform="matrix(1,0,0,1,242.5449981689453,197.54100036621094)"><path stroke-linecap="round" stroke-linejoin="round" fill-opacity="0" stroke="rgb(58,92,132)" stroke-opacity="1" stroke-width="8" d=" M14.407999992370605,-63.70100021362305 C20.05500030517578,-4.9720001220703125 7.324999809265137,32.262001037597656 -15.258999824523926,36.0260009765625 C-15.258999824523926,36.0260009765625 -16.437000274658203,51.4900016784668 -15.11400032043457,63.70100021362305"/></g><g opacity="1" transform="matrix(1,0,0,1,336.8179931640625,304.2139892578125)"><path stroke-linecap="round" stroke-linejoin="round" fill-opacity="0" stroke="rgb(144,201,221)" stroke-opacity="1" stroke-width="8" d=" M-109.38700103759766,-42.97200012207031 C-109.38700103759766,-42.97200012207031 -97.21499633789062,-32.45899963378906 -31.367000579833984,-9.42199993133545 C15.508999824523926,6.978000164031982 81.10299682617188,31.363000869750977 109.38700103759766,42.97200012207031"/></g><g opacity="1" transform="matrix(1,0,0,1,124.06500244140625,202.75)"><path stroke-linecap="round" stroke-linejoin="round" fill-opacity="0" stroke="rgb(58,92,132)" stroke-opacity="1" stroke-width="8" d=" M23.229000091552734,61.99800109863281 C23.229000091552734,61.99800109863281 23.72599983215332,44.11199951171875 22.312999725341797,35.57699966430664 C19.011999130249023,15.633999824523926 -16.992000579833984,-13.072999954223633 -23.31399917602539,-61.99800109863281"/></g><g opacity="1" transform="matrix(1,0,0,1,253.00900268554688,402.1579895019531)"><path stroke-linecap="round" stroke-linejoin="round" fill-opacity="0" stroke="rgb(47,73,104)" stroke-opacity="1" stroke-width="8" d=" M225.82400512695312,-2.3440001010894775 C209.21499633789062,30.393999099731445 167.63099670410156,15.157999992370605 82.38800048828125,-4.360000133514404 C82.38800048828125,-4.360000133514404 85.4209976196289,15.802000045776367 88.72000122070312,50.44499969482422 C88.72000122070312,50.44499969482422 -191.5330047607422,51.07500076293945 -191.5330047607422,51.07500076293945 C-204.46200561523438,29.757999420166016 -229.96299743652344,-16.339000701904297 -225.25,-51.07500076293945"/></g><g opacity="1" transform="matrix(1,0,0,1,87.5270004272461,307.9150085449219)"><path stroke-linecap="round" stroke-linejoin="round" fill-opacity="0" stroke="rgb(144,201,221)" stroke-opacity="1" stroke-width="8" d=" M-59.768001556396484,43.167999267578125 C-54.12099838256836,1.5499999523162842 30.483999252319336,-21.475000381469727 59.768001556396484,-43.167999267578125"/></g><g opacity="1" transform="matrix(1,0,0,1,178.53199768066406,96.17900085449219)"><path stroke-linecap="round" stroke-linejoin="round" fill-opacity="0" stroke="rgb(144,201,221)" stroke-opacity="1" stroke-width="8" d=" M-77.77999877929688,44.571998596191406 C-83.08999633789062,3.4790000915527344 -55.066001892089844,-41.183998107910156 -7.828999996185303,-44.38399887084961 C31.815000534057617,-47.06999969482422 72.77400207519531,-21.06800079345703 78.4209976196289,37.6609992980957"/></g></g></g><g transform="matrix(0.9793439507484436,-0.20220135152339935,0.20220135152339935,0.9793439507484436,-34.907684326171875,70.49897766113281)" opacity="1" style="display: block;"><g opacity="1" transform="matrix(1,0,0,1,0,0)"><g opacity="1" transform="matrix(1,0,0,1,312.14801025390625,147.197998046875)"><path fill="url(#__lottie_element_280)" fill-opacity="1" d=" M70.44100189208984,7.500999927520752 C72.572998046875,-5.10699987411499 73.38500213623047,-17.26300048828125 72.61100006103516,-28.503999710083008 C70.28800201416016,-62.22700119018555 53.68600082397461,-87.72200012207031 15.58899974822998,-92.53700256347656 C-23.99799919128418,-97.54000091552734 -48.66899871826172,-80.53800201416016 -62.17300033569336,-49.95500183105469 C-66.67400360107422,-39.76100158691406 -69.93499755859375,-28.05699920654297 -72.09300231933594,-15.156000137329102 C-80.7249984741211,36.44599914550781 -58.58100128173828,84.88500213623047 -24.67099952697754,92.33100128173828 C2.7209999561309814,98.34600067138672 33.750999450683594,78.33799743652344 52.926998138427734,50.18600082397461 C65.29299926757812,44.766998291015625 73.57099914550781,29.06100082397461 73.93699645996094,17.542999267578125 C74.08799743652344,12.795999526977539 73.7249984741211,11.25100040435791 70.44100189208984,7.500999927520752z"/></g><g opacity="1" transform="matrix(1,0,0,1,317.36700439453125,86.24500274658203)"><path stroke-linecap="round" stroke-linejoin="round" fill-opacity="0" stroke="rgb(144,201,221)" stroke-opacity="1" stroke-width="8" d=" M67.39199829101562,32.45000076293945 C65.06900024414062,-1.2730000019073486 48.46799850463867,-26.768999099731445 10.371000289916992,-31.583999633789062 C-29.215999603271484,-36.58700180053711 -53.88800048828125,-19.583999633789062 -67.39199829101562,10.99899959564209"/></g><g opacity="1" transform="matrix(1,0,0,1,383.8179931640625,136.69700622558594)"><path stroke-linecap="round" stroke-linejoin="round" fill-opacity="0" stroke="rgb(58,92,132)" stroke-opacity="1" stroke-width="8" d=" M-1.2289999723434448,18.00200080871582 C0.902999997138977,5.394000053405762 1.715000033378601,-6.761000156402588 0.9409999847412109,-18.00200080871582"/></g><g opacity="1" transform="matrix(1,0,0,1,312.1340026855469,168.9219970703125)"><path stroke-linecap="round" stroke-linejoin="round" fill-opacity="0" stroke="rgb(58,92,132)" stroke-opacity="1" stroke-width="8" d=" M-62.159000396728516,-71.67900085449219 C-66.66000366210938,-61.48500061035156 -69.9209976196289,-49.78099822998047 -72.0790023803711,-36.880001068115234 C-80.71099853515625,14.722000122070312 -58.56700134277344,63.1609992980957 -24.656999588012695,70.60700225830078 C2.734999895095825,76.62200164794922 33.76499938964844,56.61399841308594 52.941001892089844,28.461999893188477 C65.30699920654297,23.042999267578125 73.58499908447266,7.336999893188477 73.95099639892578,-4.181000232696533"/></g><g opacity="1" transform="matrix(1,0,0,1,384.35101318359375,159.72000122070312)"><path stroke-linecap="round" stroke-linejoin="round" fill-opacity="0" stroke="rgb(144,201,221)" stroke-opacity="1" stroke-width="8" d=" M1.7339999675750732,5.020999908447266 C1.8849999904632568,0.27399998903274536 1.5219999551773071,-1.2710000276565552 -1.7619999647140503,-5.020999908447266"/></g></g></g><g transform="matrix(0.7278305888175964,-0.026524851098656654,0.03641954064369202,0.9993366003036499,-5.5721435546875,0.79730224609375)" opacity="1" style="display: block;"><g opacity="1" transform="matrix(1,0,0,1,0,0)"><g opacity="1" transform="matrix(1,0,0,1,193.1009979248047,305.1629943847656)"><path fill="url(#__lottie_element_284)" fill-opacity="1" d=" M-169.93600463867188,10.54800033569336 C-169.55999755859375,38.029998779296875 -129.16200256347656,48.39799880981445 -86.61799621582031,45.43000030517578 C-38.053001403808594,42.04199981689453 18.80500030517578,16.19499969482422 85.06400299072266,4.1479997634887695 C85.06400299072266,4.1479997634887695 112.1719970703125,11.715999603271484 137.2689971923828,-3.5799999237060547 C137.2689971923828,-3.5799999237060547 155.08999633789062,-3.3519999980926514 168.7519989013672,1.399999976158142 C168.7519989013672,1.399999976158142 171.41600036621094,-0.16099999845027924 168.7519989013672,-6.995999813079834 C165.6840057373047,-14.869000434875488 141.90699768066406,-42.96900177001953 127.15699768066406,-45.638999938964844 C112.40699768066406,-48.308998107910156 73.4990005493164,-31.143999099731445 66.76000213623047,-28.60099983215332 C66.76000213623047,-28.60099983215332 -107.06999969482422,-29.305999755859375 -135.76699829101562,-13.569000244140625"/></g><g opacity="1" transform="matrix(1,0,0,1,193.1009979248047,324.625)"><path stroke-linecap="round" stroke-linejoin="round" fill-opacity="0" stroke="rgb(47,73,104)" stroke-opacity="1" stroke-width="8" d=" M-169.93600463867188,-8.914999961853027 C-169.55999755859375,18.566999435424805 -129.16200256347656,28.93600082397461 -86.61799621582031,25.968000411987305 C-38.053001403808594,22.579999923706055 18.80500030517578,-3.2679998874664307 85.06400299072266,-15.3149995803833 C85.06400299072266,-15.3149995803833 112.1719970703125,-7.745999813079834 137.2689971923828,-23.04199981689453 C137.2689971923828,-23.04199981689453 155.08999633789062,-22.815000534057617 168.7519989013672,-18.062999725341797 C168.7519989013672,-18.062999725341797 171.41600036621094,-19.62299919128418 168.7519989013672,-26.45800018310547"/></g><g opacity="1" transform="matrix(1,0,0,1,209.59300231933594,278.7049865722656)"><path stroke-linecap="round" stroke-linejoin="round" fill-opacity="0" stroke="rgb(144,201,221)" stroke-opacity="1" stroke-width="8" d=" M152.25999450683594,19.461999893188477 C149.19200134277344,11.58899974822998 125.41500091552734,-16.51099967956543 110.66500091552734,-19.180999755859375 C95.91500091552734,-21.85099983215332 57.00699996948242,-4.685999870300293 50.268001556396484,-2.1429998874664307 C50.268001556396484,-2.1429998874664307 -123.56300354003906,-2.8480000495910645 -152.25999450683594,12.888999938964844"/></g></g></g><g transform="matrix(1,0,0,1,0.0000152587890625,0.000030517578125)" opacity="1" style="display: block;"><g opacity="1" transform="matrix(1,0,0,1,0,0)"><g opacity="1" transform="matrix(1,0,0,1,288.35198974609375,369.5610046386719)"><path fill="rgb(204,245,255)" fill-opacity="1" d=" M-37.66899871826172,-55.85499954223633 C-37.66899871826172,-55.85499954223633 -51.590999603271484,-130.68032836914062 -51.590999603271484,-130.68032836914062 C-51.590999603271484,-130.68032836914062 -54.05500030517578,0.2796666622161865 -54.05500030517578,0.2796666622161865 C-54.05500030517578,0.2796666622161865 -40.48500061035156,76.21700286865234 -40.48500061035156,76.21700286865234 C-40.48500061035156,76.21700286865234 -37.66899871826172,-55.85499954223633 -37.66899871826172,-55.85499954223633z"/></g><g opacity="1" transform="matrix(1,0,0,1,288.35198974609375,369.5610046386719)"><path stroke-linecap="round" stroke-linejoin="round" fill-opacity="0" stroke="rgb(175,227,239)" stroke-opacity="1" stroke-width="8" d=" M-37.66899871826172,-55.85499954223633 C-37.66899871826172,-55.85499954223633 -51.590999603271484,-130.68032836914062 -51.590999603271484,-130.68032836914062 C-51.590999603271484,-130.68032836914062 -54.05500030517578,0.2796666622161865 -54.05500030517578,0.2796666622161865 C-54.05500030517578,0.2796666622161865 -40.48500061035156,76.21700286865234 -40.48500061035156,76.21700286865234 C-40.48500061035156,76.21700286865234 -37.66899871826172,-55.85499954223633 -37.66899871826172,-55.85499954223633z"/></g></g></g><g transform="matrix(1,0,0,1,0.0000152587890625,0.000030517578125)" opacity="1" style="display: block;"><g opacity="1" transform="matrix(1,0,0,1,0,0)"><g opacity="1" transform="matrix(1,0,0,1,213.36599731445312,362.6960144042969)"><path fill="rgb(61,85,118)" fill-opacity="1" d=" M37.31700134277344,-48.9900016784668 C37.31700134277344,-48.9900016784668 -32.0359992980957,-83.08200073242188 -32.0359992980957,-83.08200073242188 C-32.0359992980957,-83.08200073242188 -37.31700134277344,52.80699920654297 -37.31700134277344,52.80699920654297 C-37.31700134277344,52.80699920654297 34.5,83.08200073242188 34.5,83.08200073242188 C34.5,83.08200073242188 37.31700134277344,-48.9900016784668 37.31700134277344,-48.9900016784668z"/></g><g opacity="1" transform="matrix(1,0,0,1,213.36599731445312,362.6960144042969)"><path stroke-linecap="round" stroke-linejoin="round" fill-opacity="0" stroke="rgb(47,73,104)" stroke-opacity="1" stroke-width="8" d=" M37.31700134277344,-48.9900016784668 C37.31700134277344,-48.9900016784668 -32.0359992980957,-83.08200073242188 -32.0359992980957,-83.08200073242188 C-32.0359992980957,-83.08200073242188 -37.31700134277344,52.80699920654297 -37.31700134277344,52.80699920654297 C-37.31700134277344,52.80699920654297 34.5,83.08200073242188 34.5,83.08200073242188 C34.5,83.08200073242188 37.31700134277344,-48.9900016784668 37.31700134277344,-48.9900016784668z"/></g></g></g><g transform="matrix(1,0,0,1,0.0000152587890625,0.000030517578125)" opacity="1" style="display: block;"><g opacity="1" transform="matrix(1,0,0,1,0,0)"><g opacity="1" transform="matrix(1,0,0,1,288.35198974609375,369.5610046386719)"><path fill="rgb(45,68,94)" fill-opacity="1" d=" M-37.66899871826172,-55.85499954223633 C-37.66899871826172,-55.85499954223633 40.48500061035156,-76.21700286865234 40.48500061035156,-76.21700286865234 C40.48500061035156,-76.21700286865234 38.020999908447266,54.74300003051758 38.020999908447266,54.74300003051758 C38.020999908447266,54.74300003051758 -40.48500061035156,76.21700286865234 -40.48500061035156,76.21700286865234 C-40.48500061035156,76.21700286865234 -37.66899871826172,-55.85499954223633 -37.66899871826172,-55.85499954223633z"/></g><g opacity="1" transform="matrix(1,0,0,1,288.35198974609375,369.5610046386719)"><path stroke-linecap="round" stroke-linejoin="round" fill-opacity="0" stroke="rgb(35,57,84)" stroke-opacity="1" stroke-width="8" d=" M-37.66899871826172,-55.85499954223633 C-37.66899871826172,-55.85499954223633 40.48500061035156,-76.21700286865234 40.48500061035156,-76.21700286865234 C40.48500061035156,-76.21700286865234 38.020999908447266,54.74300003051758 38.020999908447266,54.74300003051758 C38.020999908447266,54.74300003051758 -40.48500061035156,76.21700286865234 -40.48500061035156,76.21700286865234 C-40.48500061035156,76.21700286865234 -37.66899871826172,-55.85499954223633 -37.66899871826172,-55.85499954223633z"/></g></g></g><g transform="matrix(0.9966609477996826,-0.08165133744478226,0.08165133744478226,0.9966609477996826,-20.542755126953125,30.211822509765625)" opacity="1" style="display: block;"><g opacity="1" transform="matrix(1,0,0,1,0,0)"><g opacity="1" transform="matrix(1,0,0,1,404.55499267578125,271.9119873046875)"><path fill="url(#__lottie_element_298)" fill-opacity="1" d=" M36.76900100708008,9.28499984741211 C33.15599822998047,-20.17799949645996 5.811999797821045,-37.21900177001953 -23.395000457763672,-44.82600021362305 C-32.01100158691406,-47.06999969482422 -35.6879997253418,-46.316001892089844 -36.70600128173828,-43.297000885009766 C-37.80699920654297,-40.03200149536133 -35.125999450683594,-37.89699935913086 -25.933000564575195,-33.74399948120117 C-17.804000854492188,-30.07200050354004 -3.7909998893737793,-23.39299964904785 -3.7909998893737793,-23.39299964904785 C-10.418000221252441,-9.881999969482422 -27.093000411987305,4.800000190734863 -26.548999786376953,17.000999450683594 C-25.764999389648438,34.5880012512207 -10.529999732971191,45.9010009765625 3.0239999294281006,46.125 C16.577999114990234,46.3489990234375 39.11000061035156,28.375999450683594 36.76900100708008,9.28499984741211z"/></g><g opacity="1" transform="matrix(1,0,0,1,404.5870056152344,253.49000549316406)"><path stroke-linecap="round" stroke-linejoin="round" fill-opacity="0" stroke="rgb(144,201,221)" stroke-opacity="1" stroke-width="8" d=" M36.737998962402344,27.70599937438965 C33.125,-1.7569999694824219 5.78000020980835,-18.79800033569336 -23.427000045776367,-26.405000686645508 C-32.042999267578125,-28.64900016784668 -35.720001220703125,-27.893999099731445 -36.737998962402344,-24.875"/></g><g opacity="1" transform="matrix(1,0,0,1,409.75,299.6180114746094)"><path stroke-linecap="round" stroke-linejoin="round" fill-opacity="0" stroke="rgb(47,73,104)" stroke-opacity="1" stroke-width="8" d=" M-31.743999481201172,-10.704999923706055 C-30.959999084472656,6.881999969482422 -15.725000381469727,18.19499969482422 -2.1710000038146973,18.41900062561035 C11.383000373840332,18.64299964904785 33.915000915527344,0.6700000166893005 31.573999404907227,-18.42099952697754"/></g><g opacity="1" transform="matrix(1,0,0,1,387.125,272.4909973144531)"><path stroke-linecap="round" stroke-linejoin="round" fill-opacity="0" stroke="rgb(144,201,221)" stroke-opacity="1" stroke-width="8" d=" M9.131999969482422,-16.422000885009766 C1.4600000381469727,-5.144999980926514 -9.562999725341797,6.465000152587891 -9.119000434875488,16.422000885009766"/></g><g opacity="1" transform="matrix(1,0,0,1,384.1910095214844,242.3419952392578)"><path stroke-linecap="round" stroke-linejoin="round" fill-opacity="0" stroke="rgb(58,92,132)" stroke-opacity="1" stroke-width="8" d=" M-16.340999603271484,-13.72700023651123 C-17.441999435424805,-10.461999893188477 -14.76200008392334,-8.32699966430664 -5.568999767303467,-4.173999786376953 C2.559999942779541,-0.5019999742507935 16.573999404907227,6.176000118255615 16.573999404907227,6.176000118255615 C15.354999542236328,8.66100025177002 13.795999526977539,11.1850004196167 12.067000389099121,13.72700023651123"/></g></g></g><g transform="matrix(1,0,0,1,0.0000152587890625,0.000030517578125)" opacity="1" style="display: block;"><g opacity="1" transform="matrix(1,0,0,1,0,0)"><g opacity="1" transform="matrix(1,0,0,1,243.4429931640625,424.7130126953125)"><path fill="url(#__lottie_element_289)" fill-opacity="1" d=" M44.91600036621094,28.009000778198242 C48.301998138427734,15.482000350952148 62.29499816894531,-10.3149995803833 52.84400177001953,-14.029000282287598 C46.68899917602539,-16.447999954223633 33.143001556396484,7.0970001220703125 27.014999389648438,13.869999885559082 C4.438000202178955,-5.320000171661377 -4.743000030517578,-25.104999542236328 -20.937000274658203,-27.97599983215332 C-40.84299850463867,-31.5049991607666 -55.22999954223633,-11.286999702453613 -56.0359992980957,0.48500001430511475 C-56.84199905395508,12.256999969482422 -42.972999572753906,28.384000778198242 -42.972999572753906,28.384000778198242 C-42.972999572753906,28.384000778198242 44.91600036621094,28.009000778198242 44.91600036621094,28.009000778198242z"/></g><g opacity="1" transform="matrix(1,0,0,1,241.84800720214844,417.4570007324219)"><path stroke-linecap="round" stroke-linejoin="round" fill-opacity="0" stroke="rgb(144,201,221)" stroke-opacity="1" stroke-width="8" d=" M54.439998626708984,-6.771999835968018 C48.28499984741211,-9.190999984741211 34.73899841308594,14.354000091552734 28.611000061035156,21.12700080871582 C6.033999919891357,1.937000036239624 -3.1480000019073486,-17.847999572753906 -19.341999053955078,-20.7189998626709 C-39.24800109863281,-24.24799919128418 -53.63399887084961,-4.03000020980835 -54.439998626708984,7.742000102996826"/></g><g opacity="1" transform="matrix(1,0,0,1,243.4429931640625,431.8909912109375)"><path stroke-linecap="round" stroke-linejoin="round" fill-opacity="0" stroke="rgb(47,73,104)" stroke-opacity="1" stroke-width="8" d=" M-56.0359992980957,-6.691999912261963 C-56.84199905395508,5.079999923706055 -42.972999572753906,21.20599937438965 -42.972999572753906,21.20599937438965 C-42.972999572753906,21.20599937438965 44.91600036621094,20.832000732421875 44.91600036621094,20.832000732421875 C48.301998138427734,8.305000305175781 62.29499816894531,-17.492000579833984 52.84400177001953,-21.20599937438965"/></g></g></g></g></svg>